<svg id="Layer_1" data-name="Layer 1" xmlns="http://www.w3.org/2000/svg" viewBox="0 0 35 17"><defs><style>.cls-1{fill:#e21c3d;}.cls-2{fill:#fff;}.cls-3{fill:#112e51;}.cls-4{fill:#00bfe7;}</style></defs><title>Auto</title><path class="cls-1" d="M32.59,6H24.14L22,.74A1.19,1.19,0,0,0,20.91,0H10.34a1.19,1.19,0,0,0-1,.57L6,6H2.43C1.09,6,0,7.74,0,9.07L0,14H35V8.71A2.68,2.68,0,0,0,32.59,6Z"/><polygon class="cls-2" points="15 6 9.65 6 10.86 1 15 1 15 6"/><polygon class="cls-2" points="16 6 16 1 20.52 1 22.93 6 16 6"/><circle class="cls-3" cx="26.47" cy="13" r="3.85"/><circle class="cls-4" cx="26.47" cy="13" r="2.04"/><circle class="cls-3" cx="7.96" cy="13" r="3.85"/><circle class="cls-4" cx="7.96" cy="13" r="2.04"/></svg>